<svg width="14" height="14" viewBox="0 0 14 14" fill="none" xmlns="http://www.w3.org/2000/svg">
<circle cx="7" cy="7" r="7" fill="#01B99F"/>
<path d="M5.59471 8.38068L9.73971 4.19506C9.8685 4.065 10.0324 3.99997 10.2315 3.99997C10.4305 3.99997 10.5945 4.065 10.7233 4.19506C10.8521 4.32512 10.9165 4.49066 10.9165 4.69166C10.9165 4.89266 10.8521 5.0582 10.7233 5.18826L6.08649 9.87047C5.94598 10.0124 5.78206 10.0833 5.59471 10.0833C5.40737 10.0833 5.24344 10.0124 5.10294 9.87047L3.27633 8.02597C3.14753 7.8959 3.08313 7.73037 3.08313 7.52937C3.08313 7.32836 3.14753 7.16283 3.27633 7.03277C3.40513 6.90271 3.56905 6.83768 3.76811 6.83768C3.96716 6.83768 4.13109 6.90271 4.25989 7.03277L5.59471 8.38068Z" fill="white"/>
</svg>
